<svg id="Layer_1" data-name="Layer 1" xmlns="http://www.w3.org/2000/svg" xmlns:xlink="http://www.w3.org/1999/xlink" viewBox="0 0 100 100"><defs><style>.cls-1{fill:#7f0101;}.cls-2{fill:url(#linear-gradient);}.cls-10,.cls-11,.cls-12,.cls-13,.cls-14,.cls-15,.cls-16,.cls-17,.cls-18,.cls-19,.cls-20,.cls-21,.cls-22,.cls-23,.cls-24,.cls-25,.cls-26,.cls-27,.cls-28,.cls-29,.cls-3,.cls-30,.cls-31,.cls-32,.cls-33,.cls-34,.cls-35,.cls-36,.cls-37,.cls-38,.cls-39,.cls-4,.cls-40,.cls-41,.cls-42,.cls-43,.cls-44,.cls-45,.cls-46,.cls-47,.cls-48,.cls-49,.cls-5,.cls-50,.cls-51,.cls-52,.cls-53,.cls-54,.cls-55,.cls-56,.cls-57,.cls-58,.cls-6,.cls-7,.cls-8,.cls-9{fill-rule:evenodd;}.cls-3{fill:url(#linear-gradient-2);}.cls-4{fill:url(#linear-gradient-3);}.cls-5{fill:url(#linear-gradient-4);}.cls-6{fill:url(#linear-gradient-5);}.cls-7{fill:url(#linear-gradient-6);}.cls-8{fill:url(#linear-gradient-7);}.cls-9{fill:url(#linear-gradient-8);}.cls-10{fill:url(#linear-gradient-9);}.cls-11{fill:url(#linear-gradient-10);}.cls-12{fill:url(#linear-gradient-11);}.cls-13{fill:url(#linear-gradient-12);}.cls-14{fill:url(#linear-gradient-13);}.cls-15{fill:url(#linear-gradient-14);}.cls-16{fill:url(#linear-gradient-15);}.cls-17{fill:url(#linear-gradient-16);}.cls-18{fill:url(#linear-gradient-17);}.cls-19{fill:url(#linear-gradient-18);}.cls-20{fill:url(#linear-gradient-19);}.cls-21{fill:url(#linear-gradient-20);}.cls-22{fill:url(#linear-gradient-21);}.cls-23{fill:url(#linear-gradient-22);}.cls-24{fill:url(#linear-gradient-23);}.cls-25{fill:url(#linear-gradient-24);}.cls-26{fill:url(#linear-gradient-25);}.cls-27{fill:url(#linear-gradient-26);}.cls-28{fill:url(#linear-gradient-27);}.cls-29{fill:url(#linear-gradient-28);}.cls-30{fill:url(#linear-gradient-29);}.cls-31{fill:url(#linear-gradient-30);}.cls-32{fill:url(#linear-gradient-31);}.cls-33{fill:url(#linear-gradient-32);}.cls-34{fill:url(#linear-gradient-33);}.cls-35{fill:url(#linear-gradient-34);}.cls-36{fill:url(#linear-gradient-35);}.cls-37{fill:url(#linear-gradient-36);}.cls-38{fill:url(#linear-gradient-37);}.cls-39{fill:url(#linear-gradient-38);}.cls-40{fill:url(#linear-gradient-39);}.cls-41{fill:url(#linear-gradient-40);}.cls-42{fill:url(#linear-gradient-41);}.cls-43{fill:url(#linear-gradient-42);}.cls-44{fill:url(#linear-gradient-43);}.cls-45{fill:url(#linear-gradient-44);}.cls-46{fill:url(#linear-gradient-45);}.cls-47{fill:url(#linear-gradient-46);}.cls-48{fill:url(#linear-gradient-47);}.cls-49{fill:url(#linear-gradient-48);}.cls-50{fill:url(#linear-gradient-49);}.cls-51{fill:url(#linear-gradient-50);}.cls-52{fill:url(#linear-gradient-51);}.cls-53{fill:url(#linear-gradient-52);}.cls-54{fill:url(#linear-gradient-53);}.cls-55{fill:url(#linear-gradient-54);}.cls-56{fill:url(#linear-gradient-55);}.cls-57{fill:url(#linear-gradient-56);}.cls-58{fill:url(#linear-gradient-57);}.cls-59{fill:url(#linear-gradient-58);}.cls-60{fill:#dbdcde;}</style><linearGradient id="linear-gradient" x1="29.5" y1="34.07" x2="34.19" y2="53.81" gradientUnits="userSpaceOnUse"><stop offset="0" stop-color="#aaadb0"/><stop offset="0.29" stop-color="#f7f8f9"/><stop offset="0.35" stop-color="#f1f3f4"/><stop offset="0.43" stop-color="#e2e3e5"/><stop offset="0.53" stop-color="#c8cacc"/><stop offset="0.6" stop-color="#acafb2"/><stop offset="0.66" stop-color="#b5b8bb"/><stop offset="0.76" stop-color="#ced0d2"/><stop offset="0.88" stop-color="#f7f7f8"/><stop offset="0.9" stop-color="#fff"/></linearGradient><linearGradient id="linear-gradient-2" x1="6.4" y1="61.47" x2="88.94" y2="93.29" xlink:href="#linear-gradient"/><linearGradient id="linear-gradient-3" x1="3.98" y1="67.73" x2="86.53" y2="99.55" xlink:href="#linear-gradient"/><linearGradient id="linear-gradient-4" x1="5.69" y1="63.31" x2="88.24" y2="95.13" xlink:href="#linear-gradient"/><linearGradient id="linear-gradient-5" x1="3.4" y1="69.26" x2="85.94" y2="101.07" xlink:href="#linear-gradient"/><linearGradient id="linear-gradient-6" x1="5.42" y1="64.01" x2="87.97" y2="95.83" xlink:href="#linear-gradient"/><linearGradient id="linear-gradient-7" x1="3.34" y1="69.39" x2="85.89" y2="101.21" xlink:href="#linear-gradient"/><linearGradient id="linear-gradient-8" x1="5.53" y1="63.73" x2="88.07" y2="95.55" xlink:href="#linear-gradient"/><linearGradient id="linear-gradient-9" x1="3.8" y1="68.22" x2="86.34" y2="100.04" xlink:href="#linear-gradient"/><linearGradient id="linear-gradient-10" x1="6.21" y1="61.97" x2="88.75" y2="93.79" xlink:href="#linear-gradient"/><linearGradient id="linear-gradient-11" x1="4.97" y1="65.17" x2="87.52" y2="96.99" xlink:href="#linear-gradient"/><linearGradient id="linear-gradient-12" x1="7.26" y1="59.23" x2="89.81" y2="91.05" xlink:href="#linear-gradient"/><linearGradient id="linear-gradient-13" x1="6.43" y1="61.38" x2="88.98" y2="93.2" xlink:href="#linear-gradient"/><linearGradient id="linear-gradient-14" x1="8.67" y1="55.58" x2="91.22" y2="87.4" xlink:href="#linear-gradient"/><linearGradient id="linear-gradient-15" x1="8.12" y1="57" x2="90.67" y2="88.82" xlink:href="#linear-gradient"/><linearGradient id="linear-gradient-16" x1="10.36" y1="51.19" x2="92.91" y2="83" xlink:href="#linear-gradient"/><linearGradient id="linear-gradient-17" x1="10.04" y1="52.02" x2="92.59" y2="83.84" xlink:href="#linear-gradient"/><linearGradient id="linear-gradient-18" x1="12.15" y1="46.56" x2="94.69" y2="78.37" xlink:href="#linear-gradient"/><linearGradient id="linear-gradient-19" x1="12.03" y1="46.86" x2="94.58" y2="78.68" xlink:href="#linear-gradient"/><linearGradient id="linear-gradient-20" x1="13.96" y1="41.86" x2="96.5" y2="73.68" xlink:href="#linear-gradient"/><linearGradient id="linear-gradient-21" x1="14.01" y1="41.72" x2="96.56" y2="73.54" xlink:href="#linear-gradient"/><linearGradient id="linear-gradient-22" x1="15.88" y1="36.86" x2="98.43" y2="68.68" xlink:href="#linear-gradient"/><linearGradient id="linear-gradient-23" x1="16.06" y1="36.41" x2="98.6" y2="68.23" xlink:href="#linear-gradient"/><linearGradient id="linear-gradient-24" x1="17.85" y1="31.77" x2="100.39" y2="63.59" xlink:href="#linear-gradient"/><linearGradient id="linear-gradient-25" x1="18.1" y1="31.1" x2="100.65" y2="62.92" xlink:href="#linear-gradient"/><linearGradient id="linear-gradient-26" x1="19.77" y1="26.79" x2="102.31" y2="58.6" xlink:href="#linear-gradient"/><linearGradient id="linear-gradient-27" x1="20.08" y1="25.96" x2="102.63" y2="57.78" xlink:href="#linear-gradient"/><linearGradient id="linear-gradient-28" x1="21.51" y1="22.28" x2="104.05" y2="54.09" xlink:href="#linear-gradient"/><linearGradient id="linear-gradient-29" x1="21.86" y1="21.37" x2="104.4" y2="53.18" xlink:href="#linear-gradient"/><linearGradient id="linear-gradient-30" x1="10.17" y1="51.68" x2="92.72" y2="83.5" xlink:href="#linear-gradient"/><linearGradient id="linear-gradient-31" x1="8.28" y1="56.58" x2="90.83" y2="88.4" xlink:href="#linear-gradient"/><linearGradient id="linear-gradient-32" x1="10.79" y1="50.08" x2="93.34" y2="81.89" xlink:href="#linear-gradient"/><linearGradient id="linear-gradient-33" x1="9.43" y1="53.6" x2="91.98" y2="85.41" xlink:href="#linear-gradient"/><linearGradient id="linear-gradient-34" x1="11.66" y1="47.81" x2="94.21" y2="79.63" xlink:href="#linear-gradient"/><linearGradient id="linear-gradient-35" x1="10.75" y1="50.18" x2="93.3" y2="82" xlink:href="#linear-gradient"/><linearGradient id="linear-gradient-36" x1="12.9" y1="44.6" x2="95.45" y2="76.42" xlink:href="#linear-gradient"/><linearGradient id="linear-gradient-37" x1="12.41" y1="45.87" x2="94.96" y2="77.69" xlink:href="#linear-gradient"/><linearGradient id="linear-gradient-38" x1="14.59" y1="40.21" x2="97.14" y2="72.03" xlink:href="#linear-gradient"/><linearGradient id="linear-gradient-39" x1="14.48" y1="40.5" x2="97.03" y2="72.32" xlink:href="#linear-gradient"/><linearGradient id="linear-gradient-40" x1="16.48" y1="35.31" x2="99.03" y2="67.13" xlink:href="#linear-gradient"/><linearGradient id="linear-gradient-41" x1="16.67" y1="34.82" x2="99.22" y2="66.64" xlink:href="#linear-gradient"/><linearGradient id="linear-gradient-42" x1="18.49" y1="30.09" x2="101.04" y2="61.9" xlink:href="#linear-gradient"/><linearGradient id="linear-gradient-43" x1="18.91" y1="29.02" x2="101.45" y2="60.84" xlink:href="#linear-gradient"/><linearGradient id="linear-gradient-44" x1="20.54" y1="24.77" x2="103.09" y2="56.59" xlink:href="#linear-gradient"/><linearGradient id="linear-gradient-45" x1="21.1" y1="23.32" x2="103.65" y2="55.14" xlink:href="#linear-gradient"/><linearGradient id="linear-gradient-46" x1="22.42" y1="19.9" x2="104.97" y2="51.72" xlink:href="#linear-gradient"/><linearGradient id="linear-gradient-47" x1="23.09" y1="18.16" x2="105.64" y2="49.98" xlink:href="#linear-gradient"/><linearGradient id="linear-gradient-48" x1="23.98" y1="15.85" x2="106.53" y2="47.66" xlink:href="#linear-gradient"/><linearGradient id="linear-gradient-49" x1="24.78" y1="13.78" x2="107.33" y2="45.6" xlink:href="#linear-gradient"/><linearGradient id="linear-gradient-50" x1="25.38" y1="12.21" x2="107.93" y2="44.03" xlink:href="#linear-gradient"/><linearGradient id="linear-gradient-51" x1="26.26" y1="9.95" x2="108.8" y2="41.77" xlink:href="#linear-gradient"/><linearGradient id="linear-gradient-52" x1="26.61" y1="9.04" x2="109.15" y2="40.86" xlink:href="#linear-gradient"/><linearGradient id="linear-gradient-53" x1="27.49" y1="6.75" x2="110.04" y2="38.57" xlink:href="#linear-gradient"/><linearGradient id="linear-gradient-54" x1="27.62" y1="6.42" x2="110.17" y2="38.23" xlink:href="#linear-gradient"/><linearGradient id="linear-gradient-55" x1="28.44" y1="4.28" x2="110.99" y2="36.09" xlink:href="#linear-gradient"/><linearGradient id="linear-gradient-56" x1="28.26" y1="4.75" x2="110.81" y2="36.57" xlink:href="#linear-gradient"/><linearGradient id="linear-gradient-57" x1="29" y1="2.82" x2="111.55" y2="34.64" xlink:href="#linear-gradient"/><linearGradient id="linear-gradient-58" x1="40.39" y1="43.89" x2="111.04" y2="85.41" xlink:href="#linear-gradient"/></defs><rect class="cls-1" width="100" height="100"/><path class="cls-2" d="M26.8,43.5h2.93l.75-3.6h1.78l-.75,3.6h3.32l.75-3.6h1.78l-.75,3.6h1.58v1.79H36.24l-.58,2.84h2.53v1.78h-2.9l-.74,3.57H32.76l.74-3.57H30.17l-.74,3.57h-1.8l.75-3.57H26.8V48.13h2l.59-2.84H26.8Zm4.34,1.79-.59,2.84h3.32l.59-2.84Z"/><path class="cls-3" d="M35.59,76.06c-1-1.64-5.91-2.83-2.38-7.59C33.75,72.93,37.51,73.65,35.59,76.06Z"/><path class="cls-4" d="M35.6,76.06c-1.64,1-6.55-.36-5.75,5.5C32.48,77.92,36.11,79.1,35.6,76.06Z"/><path class="cls-5" d="M29.67,76.14c-.59-1.7-5-3.72-.8-7.48C28.55,72.9,31.9,74.26,29.67,76.14Z"/><path class="cls-6" d="M29.68,76.14c-1.7.61-6-1.53-6.33,4.06C26.45,77.29,29.6,79.05,29.68,76.14Z"/><path class="cls-7" d="M24.45,75c-.19-1.69-3.78-4.46.82-7C24.09,71.81,26.88,73.76,24.45,75Z"/><path class="cls-8" d="M24.45,75c-1.68.21-5.2-2.63-6.64,2.43C21.25,75.43,23.79,77.69,24.45,75Z"/><path class="cls-9" d="M19.36,72.63c.2-1.58-2.47-4.89,2.3-6.25C19.74,69.62,21.86,72,19.36,72.63Z"/><path class="cls-10" d="M19.36,72.64c-1.58-.17-4.18-3.53-6.59.79C16.35,72.31,18.18,74.92,19.36,72.64Z"/><path class="cls-11" d="M15,68.62c.52-1.4-1.2-5,3.43-5.2C16,66,17.41,68.59,15,68.62Z"/><path class="cls-12" d="M15,68.62c-1.4-.49-3.07-4.09-6.17-.66C12.33,67.69,13.44,70.45,15,68.62Z"/><path class="cls-13" d="M11.59,63.72c.75-1.17-.12-4.77,4.14-4C13,61.5,13.79,64.17,11.59,63.72Z"/><path class="cls-14" d="M11.59,63.73c-1.18-.71-2-4.31-5.48-1.78C9.34,62.37,9.83,65.1,11.59,63.73Z"/><path class="cls-15" d="M9.22,58.15c.88-.94.7-4.37,4.45-3C10.89,56.36,11.14,58.93,9.22,58.15Z"/><path class="cls-16" d="M9.22,58.15c-1-.84-1.13-4.25-4.7-2.52C7.39,56.55,7.39,59.11,9.22,58.15Z"/><path class="cls-17" d="M7.92,52.16c.93-.73,1.26-3.87,4.48-2.08C9.69,50.78,9.56,53.14,7.92,52.16Z"/><path class="cls-18" d="M7.91,52.16c-.75-.89-.44-4-3.92-2.93C6.47,50.46,6.12,52.78,7.91,52.16Z"/><path class="cls-19" d="M7.64,46.32c1-.52,1.72-3.3,4.35-1.2C9.45,45.34,9,47.45,7.64,46.32Z"/><path class="cls-20" d="M7.64,46.32c-.56-.91.17-3.68-3.13-3.2C6.58,44.58,5.93,46.63,7.64,46.32Z"/><path class="cls-21" d="M8.51,40.87c.93-.31,2-2.68,4.06-.41C10.27,40.27,9.53,42.08,8.51,40.87Z"/><path class="cls-22" d="M8.51,40.88c-.37-.9.67-3.27-2.34-3.3C7.81,39.17,6.94,40.91,8.51,40.88Z"/><path class="cls-23" d="M10.48,35.57c.86-.16,2.16-2.11,3.65.17C12.12,35.27,11.22,36.77,10.48,35.57Z"/><path class="cls-24" d="M10.48,35.57c-.22-.84,1-2.82-1.68-3.21C10.06,34,9.08,35.41,10.48,35.57Z"/><path class="cls-25" d="M13.4,30.57c.77,0,2.15-1.58,3.18.6C14.87,30.51,13.89,31.72,13.4,30.57Z"/><path class="cls-26" d="M13.4,30.57c-.11-.76,1.17-2.37-1.13-3C13.2,29.12,12.19,30.28,13.4,30.57Z"/><path class="cls-27" d="M17.14,26.06c.67.07,2.05-1.09,2.66.91C18.42,26.19,17.42,27.11,17.14,26.06Z"/><path class="cls-28" d="M17.14,26.06c0-.67,1.26-1.93-.67-2.72C17.12,24.78,16.12,25.68,17.14,26.06Z"/><path class="cls-29" d="M21.61,22.41c.56.14,1.87-.66,2.13,1.11C22.67,22.68,21.72,23.33,21.61,22.41Z"/><path class="cls-30" d="M21.61,22.41c.06-.57,1.28-1.52-.29-2.39C21.73,21.32,20.78,22,21.61,22.41Z"/><path class="cls-31" d="M62.38,76.06c1-1.64,5.91-2.83,2.38-7.59C64.22,72.93,60.47,73.65,62.38,76.06Z"/><path class="cls-32" d="M62.38,76.06c1.63,1,6.54-.36,5.74,5.5C65.5,77.92,61.86,79.1,62.38,76.06Z"/><path class="cls-33" d="M68.31,76.14c.59-1.7,5-3.73.8-7.48C69.43,72.9,66.08,74.26,68.31,76.14Z"/><path class="cls-34" d="M68.3,76.14c1.7.61,6-1.53,6.33,4C71.53,77.29,68.38,79.05,68.3,76.14Z"/><path class="cls-35" d="M73.54,75c.18-1.68,3.77-4.45-.83-7C73.89,71.81,71.1,73.76,73.54,75Z"/><path class="cls-36" d="M73.53,75c1.68.21,5.2-2.64,6.65,2.43C76.74,75.42,74.2,77.69,73.53,75Z"/><path class="cls-37" d="M78.63,72.63c-.2-1.59,2.47-4.9-2.3-6.25C78.25,69.61,76.12,72,78.63,72.63Z"/><path class="cls-38" d="M78.62,72.63c1.58-.17,4.18-3.53,6.59.78C81.63,72.3,79.81,74.91,78.62,72.63Z"/><path class="cls-39" d="M83,68.6c-.52-1.39,1.2-5-3.44-5.19C82,65.94,80.58,68.58,83,68.6Z"/><path class="cls-40" d="M83,68.61c1.4-.49,3.06-4.09,6.16-.68C85.66,67.67,84.55,70.44,83,68.61Z"/><path class="cls-41" d="M86.4,63.7c-.75-1.17.11-4.77-4.15-4.05C85,61.47,84.2,64.15,86.4,63.7Z"/><path class="cls-42" d="M86.4,63.71c1.18-.72,2-4.31,5.48-1.79C88.65,62.35,88.16,65.07,86.4,63.71Z"/><path class="cls-43" d="M88.77,58.12c-.88-.94-.71-4.37-4.46-3C87.09,56.33,86.84,58.9,88.77,58.12Z"/><path class="cls-44" d="M88.77,58.12c1-.84,1.12-4.25,4.69-2.52C90.6,56.51,90.6,59.08,88.77,58.12Z"/><path class="cls-45" d="M90.06,52.12c-.93-.72-1.27-3.86-4.48-2.07C88.29,50.74,88.43,53.11,90.06,52.12Z"/><path class="cls-46" d="M90.07,52.13c.75-.9.43-4,3.92-2.94C91.51,50.42,91.86,52.75,90.07,52.13Z"/><path class="cls-47" d="M90.33,46.27c-1-.51-1.72-3.29-4.34-1.2C88.53,45.29,89,47.4,90.33,46.27Z"/><path class="cls-48" d="M90.33,46.27c.56-.91-.16-3.68,3.13-3.19C91.4,44.53,92,46.58,90.33,46.27Z"/><path class="cls-49" d="M89.47,40.81c-.92-.32-2-2.69-4.06-.43C87.71,40.2,88.45,42,89.47,40.81Z"/><path class="cls-50" d="M89.47,40.81c.37-.89-.65-3.26,2.36-3.28C90.18,39.11,91,40.85,89.47,40.81Z"/><path class="cls-51" d="M87.53,35.49c-.87-.16-2.15-2.11-3.66.16C85.88,35.18,86.78,36.7,87.53,35.49Z"/><path class="cls-52" d="M87.53,35.49c.22-.84-1-2.82,1.69-3.2C88,33.9,88.92,35.34,87.53,35.49Z"/><path class="cls-53" d="M84.63,30.49c-.78,0-2.15-1.58-3.18.6C83.15,30.43,84.13,31.64,84.63,30.49Z"/><path class="cls-54" d="M84.63,30.49c.1-.76-1.17-2.36,1.13-3C84.83,29.05,85.84,30.21,84.63,30.49Z"/><path class="cls-55" d="M80.9,26c-.67.07-2.05-1.09-2.67.92C79.62,26.11,80.61,27,80.9,26Z"/><path class="cls-56" d="M80.9,26c0-.67-1.27-1.93.66-2.72C80.91,24.7,81.91,25.6,80.9,26Z"/><path class="cls-57" d="M76.4,22.33c-.56.15-1.87-.64-2.12,1.13C75.34,22.61,76.3,23.26,76.4,22.33Z"/><path class="cls-58" d="M76.4,22.34c-.07-.58-1.29-1.51.27-2.39C76.27,21.25,77.22,21.9,76.4,22.34Z"/><path class="cls-59" d="M65.32,83.48v1.06H33.39V83.48h2.22a5.78,5.78,0,0,0,4.18-1.69,5.41,5.41,0,0,0,1.74-4V23.33q0-6.45-6.24-6.45H32.65V15.82Q49,14.44,56.23,9.05h1.06V77.88a5.29,5.29,0,0,0,1.69,4,5.66,5.66,0,0,0,4.12,1.64Z"/><path class="cls-60" d="M57.29,9.05V29.37c-4.73,9.36-10.74,21.38-15.76,31.46V23.33q0-6.45-6.24-6.45H32.65V15.82Q49,14.44,56.23,9.05Z"/></svg>